<?xml version="1.0" encoding="UTF-8"?>
<svg id="_Слой_1" data-name="Слой 1" xmlns="http://www.w3.org/2000/svg" viewBox="0 0 110.54 109.15">
  <g id="_Слой_1-2" data-name=" Слой 1">
    <g>
      <g>
        <path d="M55.39,56.25c17.05,0,28.55-.25,29.1-3.33,1.23-6.82,2.35-28.91,1.61-30.11-2.01-3.28-11.04-8.32-29.72-8.32s-30.52,4.28-32.13,8.32c-.91,2.29,1.31,25.19,1.6,27.93.41,3.91,12.48,5.51,29.53,5.51h0Z" fill="none" stroke="#8c8c8c" stroke-miterlimit="10" stroke-width=".5"/>
        <path d="M24.26,22.81c1.61-4.03,12.85-8.32,32.13-8.32s27.71,5.04,29.72,8.32c.59.97.92,3.41.61,7.03-.85.82-1.56,1.87-1.71,2.93-.14.99-.25,1.99-.34,2.98-.93.43-1.8-.15-1.99-1.29-.28-1.63.59-4.95.22-6.59-1.16-5.21-7.83.4-10.46-1.65-1.26-.98-2.47-2.68-4.06-2.64-1.64.04-2.37,2.22-2.85,3.85-.66,2.29-1.37,4.73-3.51,5.28-.98.25-1.53-.03-1.94-.59.92-.62,1.49-2.28.56-3.56-3.21-4.44-7.99-4.92-12.34-3.38-3.44.37-6.77,2.52-8.38,6.56-.31.77-.53,1.66-.76,2.54-.66,1.31-1.27,2.68-1.85,4.08-.88.87-2.04,1.14-3.19,1.23-1.51-.66-2.87-1.9-2.99-4.09-.11-2-.31-3.57-1.31-5.17-.61-.98-1.83-.72-2.48,0-1.71,1.93-.46,4.47-1.47,6.62-.22.46-.49.85-.79,1.17-.91-6.78-1.54-13.48-.82-15.31h0Z" fill="none" stroke="#8c8c8c" stroke-miterlimit="10" stroke-width=".5"/>
        <path d="M84.63,25.58c-1.54-3-3.85-1.01-7.56-.25-3.28.67-5.42-1.68-7.09-3.02-1.9-1.52-3.88-2.27-5.43-.81-1.83,1.72-1.17,8.88-2.87,10.72-2.2,2.38-4.21-5.38-5.52-8.44-1.96-4.58-5.65-4.52-8.45-1.85-1.93,1.85-3.76.5-6,.33-2.35-.17-3.98,2-5.26,4.5-1.73,3.34,2.24,12.6-2.74,12.6-3.55,0-1.54-5.54-1.38-8.39.34-5.96-3.71-6.31-4.18-2.61-.24,1.9,1.19,4.74-.87,10.25-1,2.69-3.77,1.69-3.08-4.07,0-3.99-2.13-10.75-1.51-12.31,1.69-4.24,13.5-8.74,33.76-8.74s29.12,5.3,31.23,8.74c.56.91.57,12.06-2.21,11.66-2.77-.4,1.07-4.58-.84-8.3h0Z" fill="none" stroke="#8c8c8c" stroke-miterlimit="10" stroke-width=".5"/>
        <path d="M85.17,32.24c1.21.11,1.38-1.99,1.51-3.11.15-1.2.4-2.38.81-3.48,0-.02.04-.01.04.01-.05.76.11,1.46.1,2.21-.01.91-.09,1.77-.26,2.66-.26,1.37-.92,2.85-2.21,2.67-.48-.07-.5-1.01,0-.97h.01Z" fill="none" stroke="#8c8c8c" stroke-miterlimit="10" stroke-width=".5"/>
        <path d="M70.26,20.85c1.86,1.03,3.69,2.35,5.75,2.57,1.85.2,3.57-.94,5.45-.67.02,0,.03.04,0,.05-3.88,1.09-8.57,3.31-11.31-1.82-.05-.09.04-.16.1-.13h.01Z" fill="none" stroke="#8c8c8c" stroke-miterlimit="10" stroke-width=".5"/>
        <path d="M59.87,30.85c.77.03,1.2.07,1.67-.83.43-.83.6-1.88.78-2.84.26-1.44.4-3.01,1.01-4.31.02-.05.08-.01.07.04-.35,2.01-.31,10.97-3.73,8.93-.39-.23-.19-1.01.21-.99h0Z" fill="none" stroke="#8c8c8c" stroke-miterlimit="10" stroke-width=".5"/>
        <path d="M40.59,19.76c2.22-.15,3.9.99,6.14-.21,1.38-.74,2.51-1.29,4.04-1.09.03,0,.04.06,0,.07-1.8.46-3.23,1.76-4.94,2.39-1.81.67-3.51-.24-5.29-.68-.23-.06-.16-.47.05-.49h0Z" fill="none" stroke="#8c8c8c" stroke-miterlimit="10" stroke-width=".5"/>
        <path d="M33.63,37.09c1.94.34,1.19-6.5,1.39-7.88.32-2.19,1.25-3.39,2.38-5.03.04-.05.11,0,.09.07-.4,1.59-1.35,2.8-1.65,4.45-.21,1.15-.19,2.46-.06,3.62.09.84.49,1.57.53,2.43.09,2.25-1.11,4.43-3.06,4.04-.9-.18-.5-1.85.37-1.69h.01Z" fill="none" stroke="#8c8c8c" stroke-miterlimit="10" stroke-width=".5"/>
        <path d="M25.33,38.67c.19-.94.52-1.46.95-2.28.59-1.13.21-3.1.11-4.36-.1-1.28.04-2.57.26-3.82.26-1.47,1.38-3.57,2.73-2.59.03.02.03.08,0,.1-1.76,1.01-1.76,4.19-1.7,6.31.08,2.73.41,5.32-1.42,7.32-.41.45-1.07.03-.93-.68Z" fill="none" stroke="#8c8c8c" stroke-miterlimit="10" stroke-width=".5"/>
        <path d="M85.15,26.32c-.11-.7-.52-1.18-.65-1.87-.02-.12.07-.27.17-.22,2.19.97.75,5.32.61,7.23,0,.08-.09.08-.09,0-.09-1.11,0-2.21.02-3.32.02-.63.05-1.18-.06-1.82Z" fill="none" isolation="isolate" opacity=".5" stroke="#8c8c8c" stroke-miterlimit="10" stroke-width=".5"/>
        <path d="M58.57,27.62c.23-.16.44-.28.71-.2.73.21,1.1-.75,1.45-1.39.57-1.06.9-2.28,1.42-3.37,1.2-2.56,3.49-4,5.62-2.13.02.02,0,.05-.02.04-2.09-.56-4.12-.13-4.99,2.69-.3.97-.45,2.01-.72,3-.47,1.72-1.52,3.5-3.14,2.9-.22-.08-.46-.32-.5-.63l-.04-.27c-.03-.25.02-.5.2-.63h0Z" fill="none" isolation="isolate" opacity=".5" stroke="#8c8c8c" stroke-miterlimit="10" stroke-width=".5"/>
        <path d="M40.59,21.44c.17.02.2.29.04.37-1.74.87-3.29,1.59-4.62,3.34-1.32,1.73-1.86,3.75-2.57,5.91-.04.11-.16.1-.17-.03-.28-4.77,3.36-10.08,7.31-9.6h0Z" fill="none" isolation="isolate" opacity=".5" stroke="#8c8c8c" stroke-miterlimit="10" stroke-width=".5"/>
        <path d="M23.56,21.67c.1-.12.29-.18.4-.06.42.4.13,3.14.2,3.85.36,3.3.92,6.61.64,9.96,0,0-.02.02-.02,0-.35-3.13-.96-6.1-1.49-9.18-.25-1.46-.68-3.38.26-4.56h.01Z" fill="none" isolation="isolate" opacity=".5" stroke="#8c8c8c" stroke-miterlimit="10" stroke-width=".5"/>
        <path d="M37.48,16.9c1.19-2.7,12.55-2.56,14.66-2.69,3.87-.23,7.77-.01,11.65.09.02,0,.03.04,0,.05-3.34.55-6.67,1.08-10.02,1.52-7.98,1.05-16.38,1.22-16.29,1.02h0Z" fill="none" isolation="isolate" opacity=".5" stroke="#8c8c8c" stroke-miterlimit="10" stroke-width=".5"/>
        <path d="M71.63,47.29c-.34,0-.34.53,0,.53s.34-.53,0-.53Z" fill="none" stroke="#8c8c8c" stroke-miterlimit="10" stroke-width=".5"/>
        <path d="M74.88,44.5c-.09-.2-.33-.2-.42,0-.2.46.62.46.42,0Z" fill="none" stroke="#8c8c8c" stroke-miterlimit="10" stroke-width=".5"/>
        <path d="M70.62,42.54c-1.09,0-1.09,1.69,0,1.69s1.09-1.69,0-1.69Z" fill="none" stroke="#8c8c8c" stroke-miterlimit="10" stroke-width=".5"/>
        <path d="M74.9,46.2c-.87,0-.87,1.35,0,1.35s.87-1.35,0-1.35Z" fill="none" stroke="#8c8c8c" stroke-miterlimit="10" stroke-width=".5"/>
        <path d="M79.4,44.91c-.65,0-.65,1.01,0,1.01s.65-1.01,0-1.01Z" fill="none" stroke="#8c8c8c" stroke-miterlimit="10" stroke-width=".5"/>
        <path d="M80.08,38.2c-.3,0-.3.46,0,.46s.3-.46,0-.46Z" fill="none" stroke="#8c8c8c" stroke-miterlimit="10" stroke-width=".5"/>
        <path d="M75.8,39.9s.01-.02,0-.02" fill="none" stroke="#8c8c8c" stroke-miterlimit="10" stroke-width=".5"/>
        <path d="M77.04,41.03c-1.01,0-1.01,1.56,0,1.56s1.01-1.56,0-1.56Z" fill="none" stroke="#8c8c8c" stroke-miterlimit="10" stroke-width=".5"/>
        <path d="M69.04,50.85c-.68,0-.68,1.06,0,1.06s.68-1.06,0-1.06Z" fill="none" stroke="#8c8c8c" stroke-miterlimit="10" stroke-width=".5"/>
        <path d="M74.56,51.55c-.37,0-.37.57,0,.57s.37-.57,0-.57Z" fill="none" stroke="#8c8c8c" stroke-miterlimit="10" stroke-width=".5"/>
        <path d="M79.18,47.95c-.79,0-.79,1.22,0,1.22s.79-1.22,0-1.22Z" fill="none" stroke="#8c8c8c" stroke-miterlimit="10" stroke-width=".5"/>
        <path d="M80.53,50.79c-.76,0-.76,1.18,0,1.18s.76-1.18,0-1.18Z" fill="none" stroke="#8c8c8c" stroke-miterlimit="10" stroke-width=".5"/>
        <path d="M81.2,35.28c-.44,0-.44.68,0,.68s.44-.68,0-.68Z" fill="none" stroke="#8c8c8c" stroke-miterlimit="10" stroke-width=".5"/>
        <path d="M65.52,30.43c-.55,1.66-1.77,3.21-3.47,3.79-.05.02-.05.11,0,.1,1-.11,1.64-.49,2.29-1.27.62-.74,1.01-1.67,1.23-2.61,0-.04-.05-.06-.06-.02h0Z" fill="none" stroke="#8c8c8c" stroke-miterlimit="10" stroke-width=".5"/>
        <path d="M77.33,27.73c-.77-.35-1.59-.22-2.42-.34-.99-.15-2.15-.7-2.86-1.41-.08-.09-.23.02-.17.13.64,1.06,1.26,1.79,2.44,2.26.96.38,2.35.46,3.04-.41.05-.06.06-.18-.03-.22h0Z" fill="none" stroke="#8c8c8c" stroke-miterlimit="10" stroke-width=".5"/>
        <path d="M38.64,32.48c-.44,2.98-.15,7.71-4.17,8.01-.1,0-.09.14,0,.15,4.19.42,4.34-5.1,4.84-7.98.08-.44-.61-.62-.67-.18Z" fill="none" stroke="#8c8c8c" stroke-miterlimit="10" stroke-width=".5"/>
        <path d="M47.76,23.71c-.51-.05-.98.28-1.47.39-.3.07-.63.06-.94.07-.37.02-.72.16-1.09.18-.12,0-.15.18-.03.21.42.11.78.33,1.22.4.35.05.72.04,1.06-.01.62-.09,1.35-.34,1.42-1.05,0-.11-.1-.18-.19-.19h.02Z" fill="none" stroke="#8c8c8c" stroke-miterlimit="10" stroke-width=".5"/>
        <path d="M28.98,39.48c-.52-.89-1.29.26-1.69.61-.37.33-1.63.44-1.53,1.12.05.31.42.5.7.53.43.05.78-.09,1.17-.27.59-.27,1.81-1.22,1.35-1.99Z" fill="none" stroke="#8c8c8c" stroke-miterlimit="10" stroke-width=".5"/>
        <path d="M41.56,48.25c-.69,0-.69,1.08,0,1.08s.69-1.08,0-1.08Z" fill="none" stroke="#8c8c8c" stroke-miterlimit="10" stroke-width=".5"/>
        <path d="M44.6,42.02c-.6,0-.6.93,0,.93s.6-.93,0-.93Z" fill="none" stroke="#8c8c8c" stroke-miterlimit="10" stroke-width=".5"/>
        <path d="M46.41,44.39c-.74,0-.74,1.14,0,1.14s.74-1.14,0-1.14Z" fill="none" stroke="#8c8c8c" stroke-miterlimit="10" stroke-width=".5"/>
        <path d="M47.08,48.48c-.11,0-.11.17,0,.17s.11-.17,0-.17Z" fill="none" stroke="#8c8c8c" stroke-miterlimit="10" stroke-width=".5"/>
        <path d="M55.86,48.96c-.65,0-.65,1.01,0,1.01s.65-1.01,0-1.01Z" fill="none" stroke="#8c8c8c" stroke-miterlimit="10" stroke-width=".5"/>
        <path d="M55.19,41.62c-.25,0-.25.38,0,.38s.24-.38,0-.38Z" fill="none" stroke="#8c8c8c" stroke-miterlimit="10" stroke-width=".5"/>
        <path d="M51.26,35.21l-.03-.03c-.13-.11-.29-.11-.42,0l-.03.03c-.11.09-.13.29-.05.41,0,0,.02.03.03.04.14.2.39.2.53,0,0,0,.02-.03.03-.04.08-.12.05-.32-.05-.41h-.01Z" fill="none" stroke="#8c8c8c" stroke-miterlimit="10" stroke-width=".5"/>
        <path d="M45.73,37.61c-.76,0-.76,1.18,0,1.18s.76-1.18,0-1.18Z" fill="none" stroke="#8c8c8c" stroke-miterlimit="10" stroke-width=".5"/>
        <path d="M49.11,38.98c-.16,0-.16.25,0,.25s.16-.25,0-.25Z" fill="none" stroke="#8c8c8c" stroke-miterlimit="10" stroke-width=".5"/>
        <path d="M35.68,45.55s-.03,0-.05.02c-.29.11-.29.48,0,.59.02,0,.03,0,.05.02.52.2.52-.82,0-.63Z" fill="none" stroke="#8c8c8c" stroke-miterlimit="10" stroke-width=".5"/>
        <path d="M31,42.23s.09.05.13.07c-.43-.52-1.27.31-.74.74.19.16.36.21.61.14.51-.14.43-.79,0-.96h0Z" fill="none" stroke="#8c8c8c" stroke-miterlimit="10" stroke-width=".5"/>
        <path d="M33.12,50.68c-.61,0-.61.95,0,.95s.61-.95,0-.95Z" fill="none" stroke="#8c8c8c" stroke-miterlimit="10" stroke-width=".5"/>
        <path d="M29.97,47.86c-.33,0-.33.51,0,.51s.33-.51,0-.51Z" fill="none" stroke="#8c8c8c" stroke-miterlimit="10" stroke-width=".5"/>
        <path d="M37.06,49.86c-.07,0-.07.11,0,.11s.07-.11,0-.11Z" fill="none" stroke="#8c8c8c" stroke-miterlimit="10" stroke-width=".5"/>
        <path d="M44.53,52.44c-.13-.06-.15-.06-.29-.04-.1.02-.1.19,0,.2.14.02.16.02.29-.04.05-.02.05-.1,0-.13h0Z" fill="none" stroke="#8c8c8c" stroke-miterlimit="10" stroke-width=".5"/>
        <path d="M51.36,52.12c-.64,0-.64.99,0,.99s.64-.99,0-.99Z" fill="none" stroke="#8c8c8c" stroke-miterlimit="10" stroke-width=".5"/>
        <path d="M52.05,46.55c-.04-.08-.15-.12-.24-.1-.02,0-.03,0-.05.02-.18.06-.18.31,0,.37.02,0,.03,0,.05.02.09.03.19-.02.24-.1.04-.08.04-.13,0-.21Z" fill="none" stroke="#8c8c8c" stroke-miterlimit="10" stroke-width=".5"/>
        <path d="M51.81,41.79c-.16,0-.16.25,0,.25s.16-.25,0-.25Z" fill="none" stroke="#8c8c8c" stroke-miterlimit="10" stroke-width=".5"/>
        <path d="M45.39,32.41c-.5,0-.5.78,0,.78s.5-.78,0-.78Z" fill="none" stroke="#8c8c8c" stroke-miterlimit="10" stroke-width=".5"/>
        <path d="M51.99,28.69s-.03.01-.05.02c-.15.05-.15.26,0,.31.02,0,.03.01.05.02.29.1.29-.45,0-.35Z" fill="none" stroke="#8c8c8c" stroke-miterlimit="10" stroke-width=".5"/>
        <path d="M56.54,33.75s-.08,0-.11,0c-.07,0-.07.1,0,.11.04,0,.08,0,.11,0,.08,0,.08-.13,0-.13Z" fill="none" stroke="#8c8c8c" stroke-miterlimit="10" stroke-width=".5"/>
        <path d="M64.87,41.67c-.76,0-.76,1.18,0,1.18s.76-1.18,0-1.18Z" fill="none" stroke="#8c8c8c" stroke-miterlimit="10" stroke-width=".5"/>
        <path d="M61.83,48.72c-.67,0-.67,1.03,0,1.03s.67-1.03,0-1.03Z" fill="none" stroke="#8c8c8c" stroke-miterlimit="10" stroke-width=".5"/>
        <path d="M62.28,37.97c-.89,0-.89,1.37,0,1.37s.88-1.37,0-1.37Z" fill="none" stroke="#8c8c8c" stroke-miterlimit="10" stroke-width=".5"/>
        <path d="M71.87,36.97h0c-.1-.06-.22-.03-.31.04-.13.1-.14.22-.12.38.04.27.41.32.57.15.16-.16.11-.54-.15-.57h.01Z" fill="none" stroke="#8c8c8c" stroke-miterlimit="10" stroke-width=".5"/>
        <path d="M73.09,31.95c-.37,0-.37.57,0,.57s.37-.57,0-.57Z" fill="none" stroke="#8c8c8c" stroke-miterlimit="10" stroke-width=".5"/>
        <path d="M76.36,34.12c-.76,0-.76,1.18,0,1.18s.76-1.18,0-1.18Z" fill="none" stroke="#8c8c8c" stroke-miterlimit="10" stroke-width=".5"/>
        <g>
          <path d="M84.67,16.94c-.1-.82-.53-1.46-1.12-1.96.52-.44.7-1.25.21-1.84.43-.67.41-1.67-.48-2.19-.67-.39-1.36-.85-2.07-1.23.3.04.58.08.82.08.55,0,1.21-.4,1.43-.92.31-.73.87-1.53.83-2.36-.04-.77-.53-1.3-.77-1.97-.02-.05-.09-.05-.1,0-.12.43-.57.84-.95,1.03-.33.17-.52.5-.82.71-1.54-.17-3.18.15-3.82,1.77-.13.33-.14.65-.07.93-.34.09-.68.22-1.02.43-.4.25-.65.83-.49,1.29-.71.25-1.32.72-1.62,1.45-.07.18-.07.41.03.58-.98.22-1.79.78-2.11,1.92-.24.84.42,1.95,1.32,2.05,1.46.16,2.86.35,4.29.73,1.68.44,3.55,1.72,5.31,1.27.72-.18,1.31-1.04,1.22-1.78h-.02Z" fill="none" stroke="#8c8c8c" stroke-miterlimit="10" stroke-width=".5"/>
          <path d="M77.03,13.42c-.28-.25-.59-.44-.95-.57-.47-.17-.85-.07-1.3.06-.13.04-.13.22,0,.26.33.1.59.22.94.26.4.04.81.1,1.21.16.1.02.19-.1.1-.18h0Z" fill="none" stroke="#8c8c8c" stroke-miterlimit="10" stroke-width=".5"/>
          <path d="M82.11,13.23c-.61-.46-1.41-.93-2.19-.95-.48,0-.62.63-.24.87.46.29,1.03.4,1.53.64.5.24,1.24.69,1.45,1.21.06.15.32.15.31-.04-.05-.73-.27-1.28-.86-1.73Z" fill="none" stroke="#8c8c8c" stroke-miterlimit="10" stroke-width=".5"/>
        </g>
        <g>
          <path d="M62.56,12.15c-.28-.78-.83-1.31-1.51-1.68.42-.54.42-1.37-.19-1.84.28-.75.05-1.72-.94-2.04-.74-.24-1.51-.54-2.29-.77.3-.03.59-.05.81-.1.54-.12,1.09-.65,1.2-1.2.15-.78.53-1.68.31-2.48-.2-.74-.79-1.16-1.17-1.76-.03-.05-.1-.03-.1.03-.03.44-.38.94-.71,1.21-.29.24-.41.6-.65.87-1.54.16-3.07.82-3.36,2.54-.06.35,0,.67.13.93-.31.16-.62.36-.91.64-.34.33-.46.95-.2,1.37-.64.4-1.13.98-1.27,1.76-.03.19.02.41.15.56-.91.43-1.58,1.14-1.66,2.32-.05.87.83,1.82,1.72,1.72,1.46-.15,2.87-.27,4.35-.2,1.74.08,3.83.93,5.46.12.67-.33,1.06-1.29.81-2h.02Z" fill="none" stroke="#8c8c8c" stroke-miterlimit="10" stroke-width=".5"/>
          <path d="M53.99,10.24c-.26-.2-.57-.24-.9-.25-.2,0-.37,0-.56.03-.22.05-.35.18-.54.28-.07.04-.07.15,0,.18.34.17.55.33.95.31.37-.01.75-.02,1.05-.26.08-.07.08-.23,0-.3h0Z" fill="none" stroke="#8c8c8c" stroke-miterlimit="10" stroke-width=".5"/>
          <path d="M58.18,8.75c-.68-.28-1.44-.43-2.09-.01-.15.1-.14.29,0,.38.48.34,1.01.47,1.57.64.3.09.58.24.89.32.39.11.72.12,1.12.18.08.01.16-.06.11-.14-.43-.69-.83-1.05-1.59-1.37h0Z" fill="none" stroke="#8c8c8c" stroke-miterlimit="10" stroke-width=".5"/>
        </g>
        <g>
          <path d="M26.2,16.49c.1-.82.53-1.46,1.12-1.96-.52-.44-.7-1.25-.21-1.84-.43-.67-.41-1.67.48-2.19.67-.39,1.36-.85,2.07-1.24-.3.04-.58.08-.82.08-.55,0-1.21-.4-1.43-.92-.31-.73-.87-1.53-.83-2.36.04-.76.53-1.3.77-1.97.02-.05.09-.04.1,0,.12.43.57.84.95,1.03.33.17.52.5.82.71,1.54-.17,3.18.15,3.82,1.77.13.33.14.65.07.93.34.09.68.22,1.02.43.4.25.65.83.49,1.29.71.25,1.32.72,1.62,1.45.07.18.07.41-.03.58.98.22,1.79.78,2.11,1.92.24.84-.42,1.95-1.32,2.05-1.46.16-2.86.35-4.29.73-1.68.44-3.55,1.72-5.31,1.27-.72-.18-1.31-1.04-1.22-1.78l.02.02Z" fill="none" stroke="#8c8c8c" stroke-miterlimit="10" stroke-width=".5"/>
          <path d="M29.46,13.45c-.38-.08-.73.08-1.07.24s-.82.28-.99.63c-.07.15,0,.3.15.36.37.12.75-.13,1.08-.27.36-.16.74-.3.97-.64.07-.11,0-.28-.13-.31h-.01Z" fill="none" stroke="#8c8c8c" stroke-miterlimit="10" stroke-width=".5"/>
          <path d="M34.13,10.55c-.9.07-1.67.52-2.38,1.05-.03.02,0,.06.02.06.86-.16,1.63-.56,2.39-.99.05-.03.03-.12-.03-.12Z" fill="none" stroke="#8c8c8c" stroke-miterlimit="10" stroke-width=".5"/>
        </g>
      </g>
      <g>
        <path d="M55.07,108.9c-28.68,0-46.35-2.76-47.28-6.89-2.06-9.14-5.64-36.33-4.4-37.94,3.38-4.39,18.58-11.15,50-11.15s51.35,5.74,54.06,11.15c1.53,3.07-2.32,32.65-2.81,36.33-.69,5.24-20.89,8.5-49.57,8.5Z" fill="none" stroke="#8c8c8c" stroke-miterlimit="10" stroke-width=".5"/>
        <path d="M11.46,81.51c3-.26,5.85.24,8.74,1.06,3.05.86,4.43-.18,7.31-1.14,3.1-1.04,7.05-1.69,10.23-.52,2.25.83,4.8,2.85,7.12,3.28.98.18,2.78-1,3.68-1.32,1.48-.53,2.81-.89,4.39-1.06,2.73-.29,5.2.3,7.81,1,2.36.63,4.29-1.82,6.78-2.44,2.9-.71,5.9-.92,8.59.63.85.49,1.64,1.2,2.48,1.76-.64-.57.75-.8,1.85-1.4,2.17-1.18,5.77-1.78,8.13-.78.73.31,1.56.84,2.33,1.18.03-.01.05-.02.08-.04.53-.22,1.05-.44,1.58-.67,2.02-.77,4.99-1.39,7.14-.61,3.21,1.16,4.83,1.87,7.09,1.54.83-8.23,1.41-16.38.64-17.91-2.7-5.41-21.62-11.15-54.06-11.15S6.77,59.68,3.39,64.07c-.7.91.13,9.9,1.35,19.22,2.06-.99,4.34-1.58,6.72-1.78Z" fill="none" stroke="#8c8c8c" stroke-miterlimit="10" stroke-width=".5"/>
        <path d="M100.66,94.82c-1.03-.42-2.11-.67-3.14-1.09-.25-.1-.41-.18-.52-.25-2.18.83-3.5,1.72-6,1.8-1.72.06-3.79-.72-5.29-1.5-.06-.03-.11-.06-.16-.08-2.36,1.49-4.53,2.29-7.39,2.48-2.53.17-5.03-1.21-7-2.63-.19-.14-.33-.25-.42-.35-.06.11-.18.23-.41.37-1.21.72-2.35,1.45-3.69,1.92-3.1,1.07-6.27,1.02-9.4.08-2.64-.78-3.79-.47-6.35.55-6.11,2.44-10.49.46-16.06-2.2-2.1-1-4.36.61-6.31,1.32-2.9,1.06-5.93,1.45-8.97.8-2.72-.58-8.28-3.13-10.2.23-.61,1.07-1.38,1.84-2.22,2.36.24,1.28.47,2.43.68,3.37.93,4.13,18.6,6.89,47.28,6.89s48.88-3.25,49.57-8.5c.1-.73.33-2.49.62-4.86-1.63.05-3.19-.15-4.6-.72h-.02Z" fill="none" stroke="#8c8c8c" stroke-miterlimit="10" stroke-width=".5"/>
        <path d="M107.45,64.07c-2.7-5.41-21.62-11.15-54.06-11.15S6.77,59.68,3.39,64.07c-1.35,1.75-.71,6.89,1.07,14.84,2.1,3.55,4.2,3.15,4.71.79.47-2.18-.99-6.64-.38-8.84,1.95-6.98,13.18.53,17.6-2.21,2.12-1.32,4.16-3.59,6.83-3.54,2.76.06,3.99,2.98,4.79,5.17,1.12,3.07,2.3,6.34,5.91,7.08,1.65.34,2.57-.04,3.27-.79-1.55-.83-2.5-3.05-.95-4.77,5.39-5.96,13.44-6.6,20.76-4.53,5.79.5,11.39,3.37,14.1,8.79.52,1.04.89,2.22,1.28,3.41,1.11,1.75,2.14,3.59,3.12,5.47,1.49,1.17,3.43,1.53,5.36,1.65,2.54-.89,4.82-2.54,5.03-5.49.18-2.69.53-4.78,2.21-6.94,1.03-1.31,3.08-.97,4.16,0,2.88,2.59.78,5.99,2.48,8.87.37.62.82,1.13,1.33,1.57,1.53-9.09,2.6-18.07,1.38-20.52h0Z" fill="none" stroke="#8c8c8c" stroke-miterlimit="10" stroke-width=".5"/>
        <path d="M5.87,67.79c2.6-4.03,6.48-1.36,12.72-.34,5.52.9,9.12-2.25,11.94-4.05,3.19-2.04,6.53-3.04,9.14-1.09,3.07,2.3,1.97,11.91,4.83,14.38,3.7,3.19,7.09-7.21,9.3-11.31,3.3-6.14,9.51-6.06,14.21-2.48,3.25,2.48,6.32.67,10.09.45,3.96-.23,6.69,2.68,8.86,6.03,2.9,4.48-3.78,16.89,4.62,16.89,5.97,0,2.59-7.43,2.32-11.25-.58-8,6.24-8.46,7.03-3.5.4,2.55-2,6.35,1.46,13.74,1.69,3.6,6.35,2.27,5.18-5.46,0-5.35,3.58-14.41,2.53-16.51-2.84-5.68-22.72-11.72-56.8-11.72S4.3,58.66.75,63.27c-.94,1.22-.96,16.17,3.71,15.64,4.67-.53-1.8-6.14,1.41-11.12Z" fill="none" stroke="#8c8c8c" stroke-miterlimit="10" stroke-width=".5"/>
        <path d="M4.97,76.71c-2.03.14-2.31-2.67-2.55-4.17-.25-1.61-.67-3.18-1.37-4.66,0-.03-.06-.02-.06.02.08,1.01-.19,1.96-.17,2.96.02,1.22.15,2.38.43,3.57.43,1.84,1.56,3.82,3.71,3.58.81-.09.85-1.36,0-1.3h0Z" fill="none" stroke-width="0"/>
        <path d="M29,62.5c-3.13,1.38-6.21,3.15-9.68,3.45-3.11.27-6.01-1.26-9.17-.89-.03,0-.05.05,0,.06,6.53,1.46,14.42,4.44,19.04-2.44.08-.12-.07-.22-.17-.17h-.02Z" fill="none" stroke="#8c8c8c" stroke-miterlimit="10" stroke-width=".5"/>
        <path d="M47.54,74.84c-1.29.04-2.02.1-2.8-1.11-.72-1.11-1.01-2.53-1.3-3.8-.44-1.94-.67-4.04-1.69-5.78-.04-.06-.13-.02-.12.05.59,2.7.52,14.7,6.28,11.97.65-.31.32-1.35-.36-1.33h-.01Z" fill="none" stroke="#8c8c8c" stroke-miterlimit="10" stroke-width=".5"/>
        <path d="M78.05,61.82c-3.74-.2-6.57,1.33-10.33-.29-2.32-1-4.22-1.73-6.79-1.46-.05,0-.07.08,0,.09,3.02.61,5.43,2.36,8.31,3.21,3.04.9,5.9-.32,8.91-.91.39-.08.27-.63-.09-.65h0Z" fill="none" stroke="#8c8c8c" stroke-miterlimit="10" stroke-width=".5"/>
        <path d="M91.68,83.22c-3.26.45-2.01-8.71-2.34-10.56-.53-2.94-2.11-4.54-4-6.75-.06-.07-.19,0-.16.09.67,2.14,2.28,3.75,2.77,5.97.35,1.54.31,3.3.1,4.85-.16,1.13-.83,2.11-.89,3.25-.15,3.02,1.86,5.95,5.15,5.42,1.51-.24.85-2.48-.63-2.27Z" fill="none" stroke="#8c8c8c" stroke-miterlimit="10" stroke-width=".5"/>
        <path d="M105.65,85.33c-.33-1.27-.88-1.96-1.6-3.06-.99-1.52-.35-4.15-.18-5.85.17-1.72-.07-3.45-.43-5.13-.43-1.97-2.33-4.79-4.59-3.47-.05.03-.05.11,0,.14,2.97,1.35,2.96,5.61,2.85,8.46-.14,3.65-.69,7.13,2.38,9.82.69.6,1.8.03,1.56-.91h.01Z" fill="none" stroke="#8c8c8c" stroke-miterlimit="10" stroke-width=".5"/>
        <path d="M5,68.78c.19-.94.88-1.58,1.1-2.51.04-.16-.11-.36-.29-.29-3.69,1.3-1.27,7.14-1.03,9.69,0,.1.15.1.16,0,.14-1.49.02-2.96-.03-4.45-.03-.85-.08-1.59.09-2.44Z" fill="#fff" isolation="isolate" opacity=".5" stroke-width="0"/>
        <path d="M49.71,70.52c-.4-.22-.73-.38-1.2-.27-1.23.29-1.86-1-2.44-1.87-.96-1.42-1.52-3.06-2.38-4.52-2.03-3.44-5.87-5.37-9.46-2.86-.03.02,0,.07.02.06,3.51-.75,6.94-.18,8.39,3.61.5,1.3.76,2.7,1.22,4.02.79,2.31,2.57,4.69,5.29,3.88.37-.11.77-.43.84-.84l.06-.37c.05-.33-.03-.67-.34-.84Z" fill="none" isolation="isolate" opacity=".5" stroke="#8c8c8c" stroke-miterlimit="10" stroke-width=".5"/>
        <path d="M79.97,62.24c-.29.03-.34.39-.07.5,2.93,1.17,5.53,2.14,7.77,4.48,2.22,2.32,3.14,5.03,4.32,7.93.06.15.27.13.28-.04.48-6.4-5.66-13.51-12.3-12.87Z" fill="none" isolation="isolate" opacity=".5" stroke="#8c8c8c" stroke-miterlimit="10" stroke-width=".5"/>
        <path d="M108.63,62.55c-.16-.16-.48-.24-.68-.09-.71.53-.21,4.21-.34,5.16-.61,4.43-1.54,8.86-1.08,13.35,0,.02.03.02.03,0,.59-4.2,1.61-8.18,2.51-12.31.42-1.95,1.14-4.53-.44-6.11Z" fill="none" isolation="isolate" opacity=".5" stroke="#8c8c8c" stroke-miterlimit="10" stroke-width=".5"/>
        <path d="M85.2,56.15c-2-3.61-21.12-3.43-24.67-3.6-6.51-.31-13.08-.02-19.6.13-.04,0-.04.06,0,.06,5.61.74,11.23,1.45,16.86,2.04,13.43,1.41,27.56,1.64,27.41,1.37Z" fill="none" isolation="isolate" opacity=".5" stroke="#8c8c8c" stroke-miterlimit="10" stroke-width=".5"/>
        <path d="M66.68,76.04c-.87,0-.87,1.35,0,1.35s.87-1.35,0-1.35Z" fill="none" stroke="#8c8c8c" stroke-miterlimit="10" stroke-width=".5"/>
        <path d="M73.14,72.4c-.14.08-.26.07.08.03-.55.06-.92.7-.47,1.14.45.45,1.08.08,1.14-.47-.04.34-.05.22.03.08.28-.5-.28-1.06-.78-.78Z" fill="none" stroke="#8c8c8c" stroke-miterlimit="10" stroke-width=".5"/>
        <path d="M62.16,72.67c-.11-.11-.21-.24-.41-.24-.25,0-.46.21-.46.46s.21.46.46.46c.2,0,.3-.13.41-.24.12-.12.12-.31,0-.43h0Z" fill="none" stroke="#8c8c8c" stroke-miterlimit="10" stroke-width=".5"/>
        <path d="M52.15,74.72c-.14-.22-.42-.25-.61-.08-.27.25-.36.58-.45.94-.12.5-.34.96-.62,1.39-.56.86-1.64,1.41-2.65,1.13-.21-.06-.37.27-.15.37,1.21.54,2.25.52,3.26-.39.72-.65,1.84-2.39,1.23-3.36h0Z" fill="none" stroke="#8c8c8c" stroke-miterlimit="10" stroke-width=".5"/>
        <path d="M7.88,74.25c-.14-.11-.39-.13-.48.06-.32.72-.13,1.41-.15,2.18-.02.95-.41,2.02-.94,2.79-.16.23.14.48.36.36.99-.55,1.48-1.34,1.71-2.43.2-.95.31-2.28-.5-2.97h0Z" fill="none" stroke="#8c8c8c" stroke-miterlimit="10" stroke-width=".5"/>
        <path d="M25.05,69.82c-2.48-.35-5.05-.16-7.46-1.02-.05-.02-.08.06-.03.08,2.15,1.09,5.24,2.92,7.53,1.22.09-.06.11-.25-.04-.27h0Z" fill="none" stroke="#8c8c8c" stroke-miterlimit="10" stroke-width=".5"/>
        <path d="M83.73,69.08c-1.05-1.3-2.98-2.89-4.73-1.93-.06.04-.08.13-.02.18,1.11,1,2.51,1.55,3.43,2.76.45.59.77,1.29.97,1.99.18.62.13,1.25.58,1.75.11.12.34.16.47.06,1.48-1.07.16-3.75-.71-4.82h0Z" fill="none" stroke="#8c8c8c" stroke-miterlimit="10" stroke-width=".5"/>
        <path d="M98.37,71.35c-.62-.41-1.36-.15-2.03-.03-.3.05-.17.49.12.45.43-.06.91.05,1.17.43.29.42.17,1.02.71,1.28.22.1.51.11.68-.09.59-.7-.02-1.62-.66-2.04h.01Z" fill="none" stroke="#8c8c8c" stroke-miterlimit="10" stroke-width=".5"/>
        <path d="M75.38,77.78l-.04-.04c-.05-.06-.17-.06-.22,0-.01.01-.02.03-.04.04-.25.15-.15.56.15.56s.41-.4.15-.56Z" fill="none" stroke="#8c8c8c" stroke-miterlimit="10" stroke-width=".5"/>
        <path d="M65.62,70.62c-.09-.01-.17-.03-.26-.03-.36-.03-.36.58,0,.56.09,0,.17-.02.26-.03.24-.04.24-.45,0-.49h0Z" fill="none" stroke="#8c8c8c" stroke-miterlimit="10" stroke-width=".5"/>
        <path d="M56.32,77.01c-.49,0-.49.76,0,.76s.49-.76,0-.76Z" fill="none" stroke="#8c8c8c" stroke-miterlimit="10" stroke-width=".5"/>
        <path d="M56.54,70.1c-.06,0-.13.01-.19.02-.67.07-.67.97,0,1.04.06,0,.13.01.19.02.69.07.69-1.15,0-1.08Z" fill="none" stroke="#8c8c8c" stroke-miterlimit="10" stroke-width=".5"/>
        <path d="M16.47,74.7c-.11-.08-.24-.1-.37-.1-.6.02-.74.89-.14,1.05.15.04.31.12.45.02.02-.01.04-.03.06-.04.35-.23.34-.69,0-.93Z" fill="none" stroke="#8c8c8c" stroke-miterlimit="10" stroke-width=".5"/>
        <path d="M22.31,77.71c-.46,0-.46.72,0,.72s.46-.72,0-.72Z" fill="none" stroke="#8c8c8c" stroke-miterlimit="10" stroke-width=".5"/>
        <path d="M25.13,78.9c-.04-.09-.19-.09-.24,0-.15.3-.13.48-.08.8.03.2.38.2.41,0,.04-.32.06-.51-.09-.8Z" fill="none" stroke="#8c8c8c" stroke-miterlimit="10" stroke-width=".5"/>
        <path d="M29.06,72.21c-.59,0-.59.91,0,.91s.59-.91,0-.91Z" fill="none" stroke="#8c8c8c" stroke-miterlimit="10" stroke-width=".5"/>
        <path d="M32.67,67.64c-.56,0-1.01.67-.67,1.17.03.05.06.09.08.14.2.45.98.45,1.18,0,.02-.05.05-.1.08-.14.34-.5-.11-1.17-.67-1.17Z" fill="none" stroke="#8c8c8c" stroke-miterlimit="10" stroke-width=".5"/>
        <path d="M35.69,75.05c-.05-.31-.58-.31-.63,0,0,.06-.02.12-.03.18-.09.58.78.58.69,0,0-.06-.02-.12-.03-.18Z" fill="none" stroke="#8c8c8c" stroke-miterlimit="10" stroke-width=".5"/>
        <path d="M44.15,80.74c-.33,0-.33.51,0,.51s.33-.51,0-.51Z" fill="none" stroke="#8c8c8c" stroke-miterlimit="10" stroke-width=".5"/>
        <path d="M40.87,77.74c-.12-.01-.24-.05-.35-.1-.19-.1-.44-.09-.6.08-.03.03-.05.06-.08.09-.14.15-.14.38,0,.52.03.03.06.06.08.09.16.16.4.18.6.08.11-.05.23-.09.35-.1.32-.06.32-.59,0-.65h0Z" fill="none" stroke="#8c8c8c" stroke-miterlimit="10" stroke-width=".5"/>
        <path d="M14.88,100.15c-.42,0-.63.52-.34.82v-.05c.13.34.56.34.69,0v.05c.29-.3.09-.82-.34-.82h0Z" fill="none" stroke="#8c8c8c" stroke-miterlimit="10" stroke-width=".5"/>
        <path d="M23.43,96.97c-.9,0-.9,1.39,0,1.39s.9-1.39,0-1.39Z" fill="none" stroke="#8c8c8c" stroke-miterlimit="10" stroke-width=".5"/>
        <path d="M26.64,101.94c0,.26.03.47.13.72.16.37.82.37.98,0,.11-.24.13-.45.13-.72,0-.8-1.25-.8-1.25,0h.01Z" fill="none" stroke="#8c8c8c" stroke-miterlimit="10" stroke-width=".5"/>
        <path d="M29.68,103c-.05.06-.1.12-.15.18-.59.7.3,1.59,1,1,.06-.05.12-.1.18-.15.72-.61-.42-1.75-1.03-1.03Z" fill="none" stroke="#8c8c8c" stroke-miterlimit="10" stroke-width=".5"/>
        <path d="M34.16,96.73h0v-.06c0-.05,0-.09-.02-.14-.02-.12-.14-.22-.25-.25-.06-.02-.12-.02-.19,0-.11.03-.23.13-.25.25,0,.05,0,.09-.02.14v.06h0s0,.09,0,.14v.06c.03.22.2.29.37.27.17.03.34-.04.37-.27v-.2h0Z" fill="none" stroke="#8c8c8c" stroke-miterlimit="10" stroke-width=".5"/>
        <path d="M44.38,101.95c-.86,0-.86,1.33,0,1.33s.86-1.33,0-1.33Z" fill="none" stroke="#8c8c8c" stroke-miterlimit="10" stroke-width=".5"/>
        <path d="M55.74,97.46s-.04-.04-.06-.07c-.02-.02-.03-.02-.05-.04-.06-.05-.12-.11-.18-.17-.64-.59-1.55.31-.96.96.06.06.11.12.17.18,0,.02.02.03.04.05.02.02.04.04.07.06.66.6,1.64-.38.98-.98h0Z" fill="none" stroke="#8c8c8c" stroke-miterlimit="10" stroke-width=".5"/>
        <path d="M59.92,103.71c-.59.02-1.21.23-1.27.9-.02.21.14.49.33.58h.02c.16.07.34.08.51.04h0c-.31.12.14,0,.21-.04.03-.01.33-.09.21-.08.89-.1.93-1.44,0-1.41h0Z" fill="none" stroke="#8c8c8c" stroke-miterlimit="10" stroke-width=".5"/>
        <path d="M68.03,102.29h-.1c-.08-.09-.21-.09-.27.01,0,.02-.02.04-.03.05-.17.12-.29.33-.22.54.07.2.15.32.34.41.89.42,1.11-1.08.28-1.02h0Z" fill="none" stroke="#8c8c8c" stroke-miterlimit="10" stroke-width=".5"/>
        <path d="M72.57,97.02c0,.06,0,.13.02.19.09.8,1.15.8,1.25,0,0-.06.01-.13.02-.19.02-.82-1.29-.82-1.28,0h0Z" fill="none" stroke="#8c8c8c" stroke-miterlimit="10" stroke-width=".5"/>
        <path d="M79.51,101.11c-.5-.29-.95.51-.45.77t.04.03c.11.1.27.1.37,0,.23-.22.41-.58.04-.79h0Z" fill="none" stroke="#8c8c8c" stroke-miterlimit="10" stroke-width=".5"/>
        <path d="M81.42,104.55c-.04-.09-.1-.16-.16-.24-.19-.26-.54.08-.27.27.08.06.15.12.24.16.14.06.26-.06.2-.2h0Z" fill="none" stroke="#8c8c8c" stroke-miterlimit="10" stroke-width=".5"/>
        <path d="M87.62,100.4c-.83,0-.83,1.29,0,1.29s.83-1.29,0-1.29Z" fill="none" stroke="#8c8c8c" stroke-miterlimit="10" stroke-width=".5"/>
        <path d="M89.42,98.46c-.71,0-.71,1.1,0,1.1s.71-1.1,0-1.1Z" fill="none" stroke="#8c8c8c" stroke-miterlimit="10" stroke-width=".5"/>
        <path d="M95.05,100.18c-.82,0-.82,1.27,0,1.27s.82-1.27,0-1.27Z" fill="none" stroke="#8c8c8c" stroke-miterlimit="10" stroke-width=".5"/>
        <path d="M101.17,97.53c-.17-.58-.81-.58-.98,0-.24.82,1.21.82.98,0Z" fill="none" stroke="#8c8c8c" stroke-miterlimit="10" stroke-width=".5"/>
        <g>
          <path d="M100.53,55.31c-.1-.82-.53-1.46-1.12-1.96.52-.44.7-1.25.21-1.84.43-.67.41-1.67-.49-2.19-.67-.39-1.36-.85-2.07-1.24.3.04.58.08.82.08.55,0,1.21-.4,1.43-.92.31-.73.87-1.53.83-2.36-.04-.76-.53-1.3-.77-1.97-.02-.05-.09-.04-.1,0-.12.43-.57.84-.95,1.03-.33.17-.52.5-.82.71-1.54-.17-3.18.15-3.82,1.77-.13.33-.14.65-.07.93-.34.09-.68.22-1.02.43-.4.25-.65.83-.49,1.29-.71.25-1.32.72-1.62,1.45-.07.18-.07.41.03.58-.98.22-1.79.78-2.11,1.92-.24.84.42,1.95,1.32,2.05,1.46.16,2.86.35,4.29.73,1.68.44,3.55,1.72,5.31,1.27.72-.18,1.31-1.04,1.22-1.78v.02Z" fill="none" stroke="#8c8c8c" stroke-miterlimit="10" stroke-width=".5"/>
          <path d="M92.88,51.8c-.28-.25-.59-.44-.95-.57-.47-.17-.85-.07-1.3.06-.13.04-.13.22,0,.26.33.11.59.22.94.26.4.04.81.1,1.21.16.09.02.19-.1.1-.18h0Z" fill="none" stroke="#8c8c8c" stroke-miterlimit="10" stroke-width=".5"/>
          <path d="M97.96,51.6c-.6-.46-1.41-.93-2.19-.95-.48,0-.62.63-.24.87.46.29,1.03.4,1.53.64.5.24,1.24.69,1.45,1.21.06.15.33.15.31-.04-.05-.73-.27-1.29-.86-1.73Z" fill="none" stroke="#8c8c8c" stroke-miterlimit="10" stroke-width=".5"/>
        </g>
        <g>
          <path d="M63.08,49.9c-.28-.78-.83-1.31-1.51-1.67.42-.54.42-1.38-.19-1.84.28-.75.05-1.72-.94-2.04-.74-.24-1.51-.54-2.29-.77.3-.03.59-.05.82-.1.54-.12,1.09-.65,1.2-1.2.15-.78.53-1.68.31-2.48-.2-.74-.79-1.16-1.17-1.76-.03-.05-.1-.03-.1.03-.03.44-.38.94-.71,1.21-.29.24-.41.6-.65.87-1.54.16-3.07.82-3.36,2.54-.06.35,0,.67.13.93-.31.16-.62.36-.91.64-.34.33-.46.95-.2,1.37-.64.4-1.13.98-1.27,1.76-.03.19.02.41.15.56-.91.43-1.58,1.14-1.66,2.32-.05.87.83,1.82,1.72,1.72,1.46-.15,2.87-.27,4.35-.2,1.74.08,3.83.93,5.46.12.67-.33,1.06-1.29.81-2h0Z" fill="none" stroke="#8c8c8c" stroke-miterlimit="10" stroke-width=".5"/>
          <path d="M54.51,47.99c-.26-.2-.57-.24-.9-.25-.2,0-.37,0-.56.03-.22.05-.35.17-.54.27-.07.04-.07.15,0,.18.34.17.55.33.95.31.37,0,.75-.02,1.05-.26.08-.07.08-.23,0-.3v.02Z" fill="none" stroke="#8c8c8c" stroke-miterlimit="10" stroke-width=".5"/>
          <path d="M58.71,46.5c-.68-.28-1.44-.43-2.09,0-.15.1-.14.29,0,.38.48.34,1.01.47,1.57.64.3.09.58.23.89.32.39.11.72.12,1.12.18.08,0,.16-.06.11-.14-.43-.69-.83-1.05-1.59-1.37h0Z" fill="none" stroke="#8c8c8c" stroke-miterlimit="10" stroke-width=".5"/>
        </g>
        <g>
          <path d="M9.18,55.31c.1-.82.53-1.46,1.12-1.96-.52-.44-.7-1.25-.2-1.84-.43-.67-.41-1.67.48-2.19.67-.39,1.36-.85,2.07-1.24-.3.04-.58.08-.82.08-.55,0-1.21-.4-1.43-.92-.31-.73-.87-1.53-.83-2.36.04-.76.53-1.3.77-1.97.02-.05.09-.04.1,0,.12.43.57.84.95,1.03.33.17.52.5.82.71,1.54-.17,3.18.15,3.82,1.77.13.33.14.65.07.93.34.09.68.22,1.02.43.4.25.65.83.49,1.29.71.25,1.32.72,1.62,1.45.07.18.07.41-.03.58.98.22,1.79.78,2.11,1.92.24.84-.42,1.95-1.32,2.05-1.46.16-2.86.35-4.29.73-1.68.44-3.55,1.72-5.31,1.27-.72-.18-1.31-1.04-1.22-1.78v.02Z" fill="none" stroke="#8c8c8c" stroke-miterlimit="10" stroke-width=".5"/>
          <path d="M12.44,52.27c-.38-.08-.73.08-1.07.24-.34.16-.81.28-.99.63-.07.15,0,.3.14.36.37.12.75-.13,1.08-.27.36-.16.74-.3.97-.64.07-.11,0-.28-.13-.31h0Z" fill="none" stroke="#8c8c8c" stroke-miterlimit="10" stroke-width=".5"/>
          <path d="M17.11,49.37c-.9.07-1.67.52-2.38,1.05-.03.02-.01.06.02.06.86-.16,1.63-.56,2.39-.99.05-.03.03-.12-.03-.12Z" fill="none" stroke="#8c8c8c" stroke-miterlimit="10" stroke-width=".5"/>
        </g>
      </g>
    </g>
  </g>
</svg>